<svg xmlns="http://www.w3.org/2000/svg" xmlns:xlink="http://www.w3.org/1999/xlink" viewBox="0 0 48 49.542">
  <defs>
    <style>
      .cls-1 {
        fill: url(#radial-gradient);
      }

      .cls-2 {
        fill: url(#radial-gradient-2);
      }

      .cls-3 {
        fill: url(#linear-gradient);
      }

      .cls-4 {
        fill: url(#radial-gradient-3);
      }

      .cls-5 {
        fill: url(#radial-gradient-4);
      }

      .cls-6 {
        fill: url(#radial-gradient-5);
      }

      .cls-7 {
        fill: url(#radial-gradient-6);
      }

      .cls-8 {
        fill: url(#radial-gradient-7);
      }

      .cls-9 {
        fill: url(#linear-gradient-2);
      }

      .cls-10 {
        fill: url(#linear-gradient-3);
      }

      .cls-11 {
        fill: url(#linear-gradient-4);
      }

      .cls-12 {
        fill: url(#linear-gradient-5);
      }

      .cls-13 {
        fill: url(#linear-gradient-6);
      }

      .cls-14 {
        fill: url(#linear-gradient-7);
      }
    </style>
    <radialGradient id="radial-gradient" cx="798.647" cy="99.442" fx="797.1992307178589" r="6.283" gradientTransform="matrix(2.753, 0.123, -0.181, 4.046, -30.078, -20.107)" gradientUnits="userSpaceOnUse">
      <stop offset="0.045" stop-color="#ffea00"/>
      <stop offset="0.12" stop-color="#ffde00"/>
      <stop offset="0.254" stop-color="#ffbf00"/>
      <stop offset="0.429" stop-color="#ff8e00"/>
      <stop offset="0.769" stop-color="#ff272d"/>
      <stop offset="0.872" stop-color="#e0255a"/>
      <stop offset="0.953" stop-color="#cc2477"/>
      <stop offset="1" stop-color="#c42482"/>
    </radialGradient>
    <radialGradient id="radial-gradient-2" cx="100.502" cy="89.191" r="48.541" gradientTransform="translate(-0.165 -0.025) scale(1.005 1.005)" gradientUnits="userSpaceOnUse">
      <stop offset="0" stop-color="#00ccda"/>
      <stop offset="0.22" stop-color="#0083ff"/>
      <stop offset="0.261" stop-color="#007af9"/>
      <stop offset="0.33" stop-color="#0060e8"/>
      <stop offset="0.333" stop-color="#005fe7"/>
      <stop offset="0.438" stop-color="#2639ad"/>
      <stop offset="0.522" stop-color="#401e84"/>
      <stop offset="0.566" stop-color="#4a1475"/>
    </radialGradient>
    <linearGradient id="linear-gradient" x1="0.573" y1="0.752" x2="0.351" y2="0.068" gradientUnits="objectBoundingBox">
      <stop offset="0" stop-color="#000f43" stop-opacity="0.4"/>
      <stop offset="0.485" stop-color="#001962" stop-opacity="0.173"/>
      <stop offset="1" stop-color="#002079" stop-opacity="0"/>
    </linearGradient>
    <radialGradient id="radial-gradient-3" cx="734.783" cy="664.644" r="17.83" gradientTransform="matrix(0.919, 0.093, -0.093, 0.919, -0.361, -2.213)" gradientUnits="userSpaceOnUse">
      <stop offset="0.003" stop-color="#ffea00"/>
      <stop offset="0.497" stop-color="#ff272d"/>
      <stop offset="1" stop-color="#c42482"/>
    </radialGradient>
    <radialGradient id="radial-gradient-4" cx="867.577" cy="422.315" r="14.886" gradientTransform="matrix(1.837, 0.185, -0.185, 1.837, -4.144, 13.163)" gradientUnits="userSpaceOnUse">
      <stop offset="0.003" stop-color="#ffe900"/>
      <stop offset="0.157" stop-color="#ffaf0e"/>
      <stop offset="0.316" stop-color="#ff7a1b"/>
      <stop offset="0.472" stop-color="#ff4e26"/>
      <stop offset="0.621" stop-color="#ff2c2e"/>
      <stop offset="0.762" stop-color="#ff1434"/>
      <stop offset="0.892" stop-color="#ff0538"/>
      <stop offset="1" stop-color="#ff0039"/>
    </radialGradient>
    <radialGradient id="radial-gradient-5" cx="554.522" cy="818.751" r="47.288" gradientTransform="matrix(0.531, 0.054, -0.054, 0.531, 11.474, -7.153)" gradientUnits="userSpaceOnUse">
      <stop offset="0.003" stop-color="#ff272d"/>
      <stop offset="0.497" stop-color="#c42482"/>
      <stop offset="0.986" stop-color="#620700"/>
    </radialGradient>
    <radialGradient id="radial-gradient-6" cx="71.008" cy="35.134" fx="72.41689719296119" fy="34.43803857243461" r="37.785" gradientTransform="translate(-1.521 -0.808) scale(1.042 1.042)" gradientUnits="userSpaceOnUse">
      <stop offset="0" stop-color="#5f5d48"/>
      <stop offset="0.156" stop-color="#ffea00"/>
      <stop offset="0.231" stop-color="#ffde00"/>
      <stop offset="0.365" stop-color="#ffbf00"/>
      <stop offset="0.541" stop-color="#ff8e00"/>
      <stop offset="0.763" stop-color="#ff272d"/>
      <stop offset="0.796" stop-color="#f92433"/>
      <stop offset="0.841" stop-color="#e91c45"/>
      <stop offset="0.893" stop-color="#cf0e62"/>
      <stop offset="0.935" stop-color="#b5007f"/>
      <stop offset="1" stop-color="#b5007f"/>
    </radialGradient>
    <radialGradient id="radial-gradient-7" cx="603.726" cy="2.065" r="18.437" gradientTransform="translate(-7.07 -0.099) scale(2.522 2.522)" gradientUnits="userSpaceOnUse">
      <stop offset="0.279" stop-color="#ffea00"/>
      <stop offset="0.402" stop-color="#fd0"/>
      <stop offset="0.63" stop-color="#ffba00"/>
      <stop offset="0.856" stop-color="#ff9100"/>
      <stop offset="0.933" stop-color="#ff6711"/>
      <stop offset="0.994" stop-color="#ff4a1d"/>
    </radialGradient>
    <linearGradient id="linear-gradient-2" x1="-69.206" y1="-45.201" x2="-67.095" y2="-45.673" gradientUnits="objectBoundingBox">
      <stop offset="0" stop-color="#c42482" stop-opacity="0.502"/>
      <stop offset="0.474" stop-color="#ff272d" stop-opacity="0.502"/>
      <stop offset="0.486" stop-color="#ff2c2c" stop-opacity="0.514"/>
      <stop offset="0.675" stop-color="#ff7a1a" stop-opacity="0.722"/>
      <stop offset="0.829" stop-color="#ffb20d" stop-opacity="0.871"/>
      <stop offset="0.942" stop-color="#ffd605" stop-opacity="0.965"/>
      <stop offset="1" stop-color="#ffe302"/>
    </linearGradient>
    <linearGradient id="linear-gradient-3" x1="1.177" y1="-7.361" x2="0.677" y2="-8.226" gradientUnits="objectBoundingBox">
      <stop offset="0" stop-color="#891551" stop-opacity="0.6"/>
      <stop offset="1" stop-color="#c42482" stop-opacity="0"/>
    </linearGradient>
    <linearGradient id="linear-gradient-4" x1="-1.042" y1="0.949" x2="-0.589" y2="1.329" gradientUnits="objectBoundingBox">
      <stop offset="0.005" stop-color="#891551" stop-opacity="0.502"/>
      <stop offset="0.484" stop-color="#ff272d" stop-opacity="0.502"/>
      <stop offset="1" stop-color="#ff272d" stop-opacity="0"/>
    </linearGradient>
    <linearGradient id="linear-gradient-5" x1="-0.234" y1="3.229" x2="-0.234" y2="2.516" gradientUnits="objectBoundingBox">
      <stop offset="0" stop-color="#c42482"/>
      <stop offset="0.083" stop-color="#c42482" stop-opacity="0.812"/>
      <stop offset="0.206" stop-color="#c42482" stop-opacity="0.565"/>
      <stop offset="0.328" stop-color="#c42482" stop-opacity="0.361"/>
      <stop offset="0.447" stop-color="#c42482" stop-opacity="0.204"/>
      <stop offset="0.562" stop-color="#c42482" stop-opacity="0.09"/>
      <stop offset="0.673" stop-color="#c42482" stop-opacity="0.024"/>
      <stop offset="0.773" stop-color="#c42482" stop-opacity="0"/>
    </linearGradient>
    <linearGradient id="linear-gradient-6" x1="0.063" y1="0.016" x2="0.924" y2="0.895" gradientUnits="objectBoundingBox">
      <stop offset="0" stop-color="#fff14f"/>
      <stop offset="0.268" stop-color="#ffee4c"/>
      <stop offset="0.452" stop-color="#ffe643"/>
      <stop offset="0.612" stop-color="#ffd834"/>
      <stop offset="0.757" stop-color="#ffc41e"/>
      <stop offset="0.892" stop-color="#ffab02"/>
      <stop offset="0.902" stop-color="#ffa900"/>
      <stop offset="0.949" stop-color="#ffa000"/>
      <stop offset="1" stop-color="#ff9100"/>
    </linearGradient>
    <linearGradient id="linear-gradient-7" x1="0.718" y1="0.072" x2="0.427" y2="0.819" gradientUnits="objectBoundingBox">
      <stop offset="0" stop-color="#897e6f"/>
      <stop offset="0.04" stop-color="#ff8e00" stop-opacity="0.859"/>
      <stop offset="0.084" stop-color="#ff8e00" stop-opacity="0.729"/>
      <stop offset="0.13" stop-color="#ff8e00" stop-opacity="0.627"/>
      <stop offset="0.178" stop-color="#ff8e00" stop-opacity="0.557"/>
      <stop offset="0.227" stop-color="#ff8e00" stop-opacity="0.514"/>
      <stop offset="0.282" stop-color="#ff8e00" stop-opacity="0.502"/>
      <stop offset="0.389" stop-color="#ff8e00" stop-opacity="0.478"/>
      <stop offset="0.524" stop-color="#ff8e00" stop-opacity="0.416"/>
      <stop offset="0.676" stop-color="#ff8e00" stop-opacity="0.314"/>
      <stop offset="0.838" stop-color="#ff8e00" stop-opacity="0.173"/>
      <stop offset="1" stop-color="#ff8e00" stop-opacity="0"/>
    </linearGradient>
  </defs>
  <g id="Firefox_Logo__2017" data-name="Firefox_Logo,_2017" transform="translate(-35 -2)">
    <path id="Path_106" data-name="Path 106" class="cls-1" d="M782.111,93.558c-1.206,1.4-1.767,4.563-.545,7.766s3.1,2.507,4.265,5.774c1.542,4.31.824,10.1.824,10.1s1.854,5.368,3.145-.334C792.659,106.154,782.111,96.2,782.111,93.558Z" transform="translate(-708.329 -86.948)"/>
    <path id="_Path_" data-name="&lt;Path&gt;" class="cls-2" d="M91.975,129.5A22.457,22.457,0,1,0,69.649,107.04,22.4,22.4,0,0,0,91.975,129.5Z" transform="translate(-32.905 -78.425)"/>
    <path id="Path_107" data-name="Path 107" class="cls-3" d="M119.562,81.084a12.43,12.43,0,0,1-1.517.915,35.443,35.443,0,0,0,1.928-3.17,12.445,12.445,0,0,0,1.268-1.594c.173-.272.368-.608.575-1a21.543,21.543,0,0,0,2.677-9.677v-.009c0-.092,0-.185,0-.278a12.969,12.969,0,0,0-.288-2.807c.01.072.019.144.028.216-.011-.055-.02-.111-.032-.167.018.1.033.2.049.3a9.6,9.6,0,0,1-.84,5.863l-.044.067a19.519,19.519,0,0,0,.105-7.633,30.6,30.6,0,0,0-1.781-5.158,15.859,15.859,0,0,0-3.927-5.4,42.886,42.886,0,0,0-2.994-3.225,8.682,8.682,0,0,1-2.069-3.065c-.194-.1-2.675-2.508-2.872-2.6-1.083,1.679-4.489,6.932-2.869,11.839a12.2,12.2,0,0,0,4.535,5.827,8.078,8.078,0,0,1,1.666,3.885,13.953,13.953,0,0,1-.833,7.954c-1.273,2.744-4.535,5.457-7.589,5.735-6.529.593-8.919-3.278-8.919-3.278A7.6,7.6,0,0,0,102.3,74.4c1.581-.978,2.537-1.7,3.313-1.417s1.375-.542.828-1.4a3.952,3.952,0,0,0-4-1.741c-1.583.257-3.032,1.511-5.106.3a4.306,4.306,0,0,1-.389-.255c-.137-.09.444.137.309.035a10.138,10.138,0,0,1-1.3-.867c-.031-.028.313.11.282.081-1.939-1.6-1.7-2.675-1.636-3.352A1.943,1.943,0,0,1,95.6,64.27c.287.156.465.276.465.276s-.122-.25-.188-.381c.023-.01.045-.007.068-.017.235.113.754.408,1.027.587a1.512,1.512,0,0,1,.47.475s.094-.052.024-.271a1.407,1.407,0,0,0-.486-.663l.022,0a4.088,4.088,0,0,1,.6.415,3.583,3.583,0,0,0,.239-1.414,2.038,2.038,0,0,0-.1-.781c-.075-.157.042-.219.172-.055a1.652,1.652,0,0,0-.111-.373v-.012c.162-.566,3.436-2.037,3.674-2.209a3.391,3.391,0,0,0,.963-1.047,2.685,2.685,0,0,0,.352-1.315c.018-.445-.189-.742-3.5-1.088a2.217,2.217,0,0,1-1.738-1.35c-.055-.13-.111-.249-.167-.367a2.92,2.92,0,0,1-.129-.424,7.946,7.946,0,0,1,2.788-3.862c.073-.066-.291.017-.218-.049a6.859,6.859,0,0,1,.744-.351c.128-.06-.548-.347-1.145-.278a2.83,2.83,0,0,0-1.061.278c.135-.134.563-.31.462-.308a6.4,6.4,0,0,0-2.165.913.54.54,0,0,1,.042-.219,3.441,3.441,0,0,0-1.353,1.165,2.234,2.234,0,0,0,.013-.272,4.254,4.254,0,0,0-.664.7l-.012.011a7.965,7.965,0,0,0-4.937-.467c-.306-.308-.456-.083-1.153-1.615-.047-.092.036.091,0,0-.115-.3.07.4,0,0-1.172.925-2.715,1.973-3.455,2.713-.009.03.864-.247,0,0-.3.086-.282.266-.328,1.888-.011.123,0,.261-.011.371a10.4,10.4,0,0,0-1.147,1.722,26.039,26.039,0,0,0-2.424,6.623,16.834,16.834,0,0,1,1.3-2.538,25.846,25.846,0,0,0-1.467,8.607,24.35,24.35,0,0,1,.631-2.551,23.816,23.816,0,0,0,1.749,10.123,24.7,24.7,0,0,0,2.569,4.8,22.756,22.756,0,0,0,33.547-.578Z" transform="translate(-43.747 -38.622)"/>
    <path id="Path_108" data-name="Path 108" class="cls-4" d="M724.376,688.249c8.2-.95,11.83-9.4,7.169-9.566C727.334,678.548,720.492,688.7,724.376,688.249Z" transform="translate(-653.574 -642.612)"/>
    <path id="Path_109" data-name="Path 109" class="cls-5" d="M867.891,448.72c5.642-3.283,4.171-10.376,4.171-10.376a23.191,23.191,0,0,0-3.656,6.561C866.944,448.9,864.5,450.7,867.891,448.72Z" transform="translate(-789.329 -414.375)"/>
    <path id="Path_110" data-name="Path 110" class="cls-6" d="M529.462,837.138c7.866,2.51,14.626-3.687,10.459-5.756C536.132,829.516,525.729,835.951,529.462,837.138Z" transform="translate(-468.811 -787.305)"/>
    <path id="Path_111" data-name="Path 111" class="cls-7" d="M79.148,50.651c.191-.27.45-1.135.679-1.521a8.476,8.476,0,0,0,1.4-4.07A20.76,20.76,0,0,0,81.471,36a18.963,18.963,0,0,0-3.8-7.955c-1.621-1.811-.479-1.221-2.049-2.543-1.376-1.525-2.71-3.036-3.436-3.643-5.25-4.389-5.131-5.321-5.03-5.48l-.074.083c-.062-.248-.106-.456-.106-.456A14.088,14.088,0,0,0,63.5,23.653a11.691,11.691,0,0,0,2.467,8.458,19.2,19.2,0,0,0,2.971,2.92h0a11.392,11.392,0,0,1,1.983,6.541A11.068,11.068,0,0,1,57.384,52.346a9.08,9.08,0,0,1-5.376-2.99,5.414,5.414,0,0,1-.678-.978,9.292,9.292,0,0,0,7.173-.227c1.75-.97,2.808-1.689,3.667-1.405s1.521-.537.916-1.386a4.569,4.569,0,0,0-4.424-1.726c-1.752.255-3.356,1.5-5.651.294a4.849,4.849,0,0,1-.431-.253c-.151-.089.492.136.342.034a11.39,11.39,0,0,1-1.442-.86c-.034-.028.347.109.312.081-2.146-1.583-1.878-2.653-1.81-3.324a1.926,1.926,0,0,1,1.1-1.5c.317.155.515.274.515.274s-.135-.248-.208-.378c.026-.01.05-.007.076-.017.26.112.835.4,1.137.583a1.577,1.577,0,0,1,.52.471s.1-.051.027-.268a1.4,1.4,0,0,0-.538-.658l.024,0a4.574,4.574,0,0,1,.661.411,3.227,3.227,0,0,0,.264-1.4,1.827,1.827,0,0,0-.107-.775c-.083-.156.047-.217.19-.055a1.513,1.513,0,0,0-.123-.37v-.012c.18-.561,3.8-2.02,4.067-2.191a3.54,3.54,0,0,0,1.066-1.039,2.46,2.46,0,0,0,.39-1.3c.012-.276-.073-.494-1.032-.7a25.9,25.9,0,0,0-2.841-.376,2.422,2.422,0,0,1-1.924-1.339c-.061-.129-.123-.247-.185-.364a2.674,2.674,0,0,1-.143-.421,7.979,7.979,0,0,1,3.085-3.83c.081-.066-.322.017-.242-.049a8.025,8.025,0,0,1,.824-.348c.142-.06-.606-.344-1.267-.275a3.416,3.416,0,0,0-1.174.276c.149-.133.623-.307.512-.306a7.558,7.558,0,0,0-2.4.9.487.487,0,0,1,.047-.217,3.729,3.729,0,0,0-1.5,1.155,1.988,1.988,0,0,0,.015-.27,4.465,4.465,0,0,0-.735.69l-.013.011a9.77,9.77,0,0,0-5.464-.463,6.627,6.627,0,0,1-1.656-2.286c-.052-.091-.081.189-.121.1a6.993,6.993,0,0,1-.451-2.62,2.779,2.779,0,0,0-1.133,1.463c-.1.212-.156.329-.218.446-.028.034.064-.388.049-.365a3.352,3.352,0,0,0-.421.635,4.9,4.9,0,0,0-.23.568l-.015.023c-.005-.074.018-.306,0-.259a11.888,11.888,0,0,0-.62,1.5,14.006,14.006,0,0,0-.649,3.754c-.012.122,0,.259-.012.368a10.289,10.289,0,0,0-1.269,1.708,24.248,24.248,0,0,0-2.683,6.569,16.068,16.068,0,0,1,1.437-2.517A23.275,23.275,0,0,0,35,43.077a22.079,22.079,0,0,1,.7-2.529,21.428,21.428,0,0,0,1.936,10.039,23.35,23.35,0,0,0,9.245,10.477h0a20.231,20.231,0,0,0,5.388,2.581c.252.091.507.181.767.269-.082-.033-.161-.068-.237-.1a24.413,24.413,0,0,0,6.988,1.027c8.82.007,11.421-3.534,11.421-3.534l-.026.019q.187-.176.36-.365c-1.392,1.314-4.567,1.4-5.755,1.306,2.025-.595,3.358-1.1,5.95-2.09q.455-.169.931-.385l.1-.047c.063-.029.125-.057.189-.088a17.582,17.582,0,0,0,3.538-2.215A8.866,8.866,0,0,0,79.96,52c-.041.128-.17.427-.26.62-.67,1.434-2.157,2.314-3.771,3.069a34.69,34.69,0,0,0,2.134-3.143C78.59,52.018,78.754,51.2,79.148,50.651Z" transform="translate(0 -13.295)"/>
    <path id="Path_112" data-name="Path 112" class="cls-8" d="M611.66,42.328A16.678,16.678,0,0,0,614.4,38.3c1.858-3.906,4.73-10.4,2.468-17.184A24.3,24.3,0,0,0,609.5,9.961c-5.062-4.65-6.476-6.727-6.476-7.961,0,0-5.845,6.515-3.31,13.311s7.726,6.546,11.161,13.638c4.042,8.345-3.27,17.451-9.317,20,.37-.082,13.441-3.04,14.128-10.517C615.676,38.57,615.381,40.638,611.66,42.328Z" transform="translate(-535.681)"/>
    <path id="Path_113" data-name="Path 113" class="cls-9" d="M384.687,261.161c.02-.442-.209-.738-3.861-1.081a2.754,2.754,0,0,1-2.253-2.112,10.437,10.437,0,0,0-.636,4.606,8.845,8.845,0,0,0,1.227,3.12s.082-.107.12-.147c.7-.727,3.622-1.834,3.9-1.991A3.2,3.2,0,0,0,384.687,261.161Z" transform="translate(-325.641 -243.081)"/>
    <path id="Path_114" data-name="Path 114" class="cls-10" d="M120.918,110.93c-.052-.092-.081.189-.121.1a6.688,6.688,0,0,1-.439-2.619,2.779,2.779,0,0,0-1.133,1.463c-.1.212-.156.329-.218.446-.028.034.064-.388.049-.365a3.577,3.577,0,0,0-.42.623,3.664,3.664,0,0,0-.232.593c-.02.072.02-.318,0-.271a13.522,13.522,0,0,0-1.3,5.648,11.766,11.766,0,0,1,5.454-3.357,6.18,6.18,0,0,1-1.646-2.26Z" transform="translate(-77.947 -101.052)"/>
    <path id="Path_115" data-name="Path 115" class="cls-11" d="M246.117,465.768c-3.51-1.5-7.5-3.613-7.351-8.415.205-6.325,5.9-5.075,5.9-5.075a2.06,2.06,0,0,0-.993.9,2.725,2.725,0,0,0,.582,3.066c1.867,2.024-3.837,4.8,4.967,10.048a8.471,8.471,0,0,1-3.1-.521Z" transform="translate(-193.503 -427.513)"/>
    <path id="Path_116" data-name="Path 116" class="cls-12" d="M275.181,570.639a9.46,9.46,0,0,0,7.125-.245c1.162-.647,2.653-1.683,3.571-1.427a6.238,6.238,0,0,0-2.12-.5c-.123,0-.271,0-.405-.016a6.849,6.849,0,0,0-.793.043,7.916,7.916,0,0,1-1.4.279c-.024,0,.438-.19.4-.182-.239.05-.5.061-.774.095-.175.019-.325.041-.5.049a15.716,15.716,0,0,1-9.567-2.81c-.373,1.256,1.67,3.741,4.457,4.711Z" transform="translate(-223.814 -535.535)"/>
    <path id="Path_117" data-name="Path 117" class="cls-13" d="M643.884,64.488c5.244-5.149,7.9-11.408,6.776-18.428a14.845,14.845,0,0,1-1.251,7.282,19.317,19.317,0,0,0-1.258-12.687,27.944,27.944,0,0,0-9.473-10.778c-2.754-2.054-3.9-4.145-3.916-4.576-.823,1.685-3.311,7.462-.267,12.436,2.852,4.66,7.344,6.044,10.489,10.319C650.778,55.93,643.884,64.488,643.884,64.488Z" transform="translate(-567.914 -22.127)"/>
    <path id="Path_118" data-name="Path 118" class="cls-14" d="M381.956,401.227c-1.833-3.786-4.12-5.438-6.284-7.227.252.352.314.477.453.7a13.368,13.368,0,0,1,2.674,13.2c-3.838,11.7-19.19,6.19-20.8,4.643.651,6.771,11.985,10.011,19.364,5.62C381.563,414.19,384.96,407.432,381.956,401.227Z" transform="translate(-306.738 -372.264)"/>
  </g>
</svg>
